<mxfile host="Electron" modified="2023-10-15T10:37:57.382Z" agent="Mozilla/5.0 (Macintosh; Intel Mac OS X 10_15_7) AppleWebKit/537.36 (KHTML, like Gecko) draw.io/22.0.2 Chrome/114.0.5735.289 Electron/25.8.4 Safari/537.36" etag="IuzmrSIDjDcgpb3t1p19" version="22.0.2" type="device">
  <diagram name="Страница — 1" id="fKZYIsltfEr1XTmnptYN">
    <mxGraphModel dx="2947" dy="2785" grid="1" gridSize="10" guides="1" tooltips="1" connect="1" arrows="1" fold="1" page="1" pageScale="1" pageWidth="827" pageHeight="1169" math="0" shadow="0">
      <root>
        <mxCell id="0" />
        <mxCell id="1" parent="0" />
        <mxCell id="NL-jAxbfkmhSjJglFaPL-113" value="" style="rounded=0;whiteSpace=wrap;html=1;" parent="1" vertex="1">
          <mxGeometry x="270" y="-190" width="880" height="1650" as="geometry" />
        </mxCell>
        <mxCell id="NL-jAxbfkmhSjJglFaPL-1" value="Visitor" style="shape=umlActor;verticalLabelPosition=bottom;verticalAlign=top;html=1;outlineConnect=0;" parent="1" vertex="1">
          <mxGeometry x="200" y="140" width="30" height="60" as="geometry" />
        </mxCell>
        <mxCell id="NL-jAxbfkmhSjJglFaPL-44" style="edgeStyle=orthogonalEdgeStyle;rounded=0;orthogonalLoop=1;jettySize=auto;html=1;entryX=0;entryY=0.5;entryDx=0;entryDy=0;endArrow=none;endFill=0;" parent="1" source="NL-jAxbfkmhSjJglFaPL-3" target="NL-jAxbfkmhSjJglFaPL-32" edge="1">
          <mxGeometry relative="1" as="geometry" />
        </mxCell>
        <mxCell id="NL-jAxbfkmhSjJglFaPL-48" style="edgeStyle=orthogonalEdgeStyle;rounded=0;orthogonalLoop=1;jettySize=auto;html=1;endArrow=block;endFill=0;" parent="1" source="NL-jAxbfkmhSjJglFaPL-3" target="NL-jAxbfkmhSjJglFaPL-1" edge="1">
          <mxGeometry relative="1" as="geometry" />
        </mxCell>
        <mxCell id="NL-jAxbfkmhSjJglFaPL-67" style="edgeStyle=orthogonalEdgeStyle;rounded=0;orthogonalLoop=1;jettySize=auto;html=1;entryX=0;entryY=0.5;entryDx=0;entryDy=0;endArrow=none;endFill=0;" parent="1" source="NL-jAxbfkmhSjJglFaPL-3" target="NL-jAxbfkmhSjJglFaPL-49" edge="1">
          <mxGeometry relative="1" as="geometry" />
        </mxCell>
        <mxCell id="NL-jAxbfkmhSjJglFaPL-82" style="edgeStyle=orthogonalEdgeStyle;rounded=0;orthogonalLoop=1;jettySize=auto;html=1;entryX=0;entryY=0.5;entryDx=0;entryDy=0;endArrow=none;endFill=0;" parent="1" source="NL-jAxbfkmhSjJglFaPL-3" target="NL-jAxbfkmhSjJglFaPL-77" edge="1">
          <mxGeometry relative="1" as="geometry" />
        </mxCell>
        <mxCell id="NL-jAxbfkmhSjJglFaPL-108" style="edgeStyle=orthogonalEdgeStyle;rounded=0;orthogonalLoop=1;jettySize=auto;html=1;entryX=0;entryY=0.5;entryDx=0;entryDy=0;" parent="1" source="NL-jAxbfkmhSjJglFaPL-3" target="NL-jAxbfkmhSjJglFaPL-107" edge="1">
          <mxGeometry relative="1" as="geometry" />
        </mxCell>
        <mxCell id="NL-jAxbfkmhSjJglFaPL-3" value="Student" style="shape=umlActor;verticalLabelPosition=bottom;verticalAlign=top;html=1;outlineConnect=0;" parent="1" vertex="1">
          <mxGeometry x="200" y="330" width="30" height="60" as="geometry" />
        </mxCell>
        <mxCell id="NL-jAxbfkmhSjJglFaPL-8" value="Пройти&lt;br&gt;Авторизацию" style="ellipse;whiteSpace=wrap;html=1;" parent="1" vertex="1">
          <mxGeometry x="410" y="100" width="140" height="70" as="geometry" />
        </mxCell>
        <mxCell id="NL-jAxbfkmhSjJglFaPL-9" value="" style="endArrow=none;html=1;edgeStyle=orthogonalEdgeStyle;rounded=0;entryX=0;entryY=0.5;entryDx=0;entryDy=0;" parent="1" source="NL-jAxbfkmhSjJglFaPL-1" target="NL-jAxbfkmhSjJglFaPL-8" edge="1">
          <mxGeometry relative="1" as="geometry">
            <mxPoint x="300" y="170" as="sourcePoint" />
            <mxPoint x="460" y="180" as="targetPoint" />
          </mxGeometry>
        </mxCell>
        <mxCell id="NL-jAxbfkmhSjJglFaPL-12" value="Пройти аутентификацию" style="ellipse;whiteSpace=wrap;html=1;" parent="1" vertex="1">
          <mxGeometry x="410" y="190" width="140" height="70" as="geometry" />
        </mxCell>
        <mxCell id="NL-jAxbfkmhSjJglFaPL-13" value="" style="endArrow=none;html=1;edgeStyle=orthogonalEdgeStyle;rounded=0;entryX=0;entryY=0.5;entryDx=0;entryDy=0;" parent="1" source="NL-jAxbfkmhSjJglFaPL-1" target="NL-jAxbfkmhSjJglFaPL-12" edge="1">
          <mxGeometry relative="1" as="geometry">
            <mxPoint x="300" y="180" as="sourcePoint" />
            <mxPoint x="420" y="145" as="targetPoint" />
          </mxGeometry>
        </mxCell>
        <mxCell id="NL-jAxbfkmhSjJglFaPL-14" value="Выбрать обучающий курс" style="ellipse;whiteSpace=wrap;html=1;" parent="1" vertex="1">
          <mxGeometry x="410" y="300" width="140" height="70" as="geometry" />
        </mxCell>
        <mxCell id="NL-jAxbfkmhSjJglFaPL-15" value="Ввод логина" style="ellipse;whiteSpace=wrap;html=1;" parent="1" vertex="1">
          <mxGeometry x="670" y="-130" width="140" height="70" as="geometry" />
        </mxCell>
        <mxCell id="NL-jAxbfkmhSjJglFaPL-16" value="Ввод пароля" style="ellipse;whiteSpace=wrap;html=1;" parent="1" vertex="1">
          <mxGeometry x="670" y="-30" width="140" height="70" as="geometry" />
        </mxCell>
        <mxCell id="NL-jAxbfkmhSjJglFaPL-17" value="Ввод метаинформации" style="ellipse;whiteSpace=wrap;html=1;" parent="1" vertex="1">
          <mxGeometry x="670" y="70" width="140" height="70" as="geometry" />
        </mxCell>
        <mxCell id="NL-jAxbfkmhSjJglFaPL-22" value="include" style="endArrow=classic;dashed=1;html=1;rounded=0;exitX=1;exitY=0.5;exitDx=0;exitDy=0;entryX=0.5;entryY=1;entryDx=0;entryDy=0;endFill=1;" parent="1" source="NL-jAxbfkmhSjJglFaPL-8" target="NL-jAxbfkmhSjJglFaPL-15" edge="1">
          <mxGeometry x="0.2727" width="160" relative="1" as="geometry">
            <mxPoint x="420" y="200" as="sourcePoint" />
            <mxPoint x="580" y="200" as="targetPoint" />
            <Array as="points">
              <mxPoint x="550" y="-60" />
            </Array>
            <mxPoint as="offset" />
          </mxGeometry>
        </mxCell>
        <mxCell id="NL-jAxbfkmhSjJglFaPL-23" value="include" style="endArrow=classic;dashed=1;html=1;rounded=0;exitX=1;exitY=0.5;exitDx=0;exitDy=0;entryX=0;entryY=0.5;entryDx=0;entryDy=0;endFill=1;" parent="1" source="NL-jAxbfkmhSjJglFaPL-8" target="NL-jAxbfkmhSjJglFaPL-16" edge="1">
          <mxGeometry x="0.4583" y="-4" width="160" relative="1" as="geometry">
            <mxPoint x="470" y="120" as="sourcePoint" />
            <mxPoint x="630" y="120" as="targetPoint" />
            <Array as="points">
              <mxPoint x="550" y="5" />
            </Array>
            <mxPoint y="-1" as="offset" />
          </mxGeometry>
        </mxCell>
        <mxCell id="NL-jAxbfkmhSjJglFaPL-24" value="include" style="endArrow=classic;dashed=1;html=1;rounded=0;exitX=1;exitY=0.5;exitDx=0;exitDy=0;entryX=0;entryY=0.5;entryDx=0;entryDy=0;endFill=1;" parent="1" source="NL-jAxbfkmhSjJglFaPL-8" target="NL-jAxbfkmhSjJglFaPL-17" edge="1">
          <mxGeometry width="160" relative="1" as="geometry">
            <mxPoint x="470" y="120" as="sourcePoint" />
            <mxPoint x="630" y="120" as="targetPoint" />
            <Array as="points">
              <mxPoint x="550" y="105" />
            </Array>
          </mxGeometry>
        </mxCell>
        <mxCell id="NL-jAxbfkmhSjJglFaPL-25" value="Ввод логина" style="ellipse;whiteSpace=wrap;html=1;" parent="1" vertex="1">
          <mxGeometry x="670" y="170" width="140" height="70" as="geometry" />
        </mxCell>
        <mxCell id="NL-jAxbfkmhSjJglFaPL-26" value="Ввод пароля&amp;nbsp;" style="ellipse;whiteSpace=wrap;html=1;" parent="1" vertex="1">
          <mxGeometry x="670" y="270" width="140" height="70" as="geometry" />
        </mxCell>
        <mxCell id="NL-jAxbfkmhSjJglFaPL-27" value="include" style="endArrow=classic;dashed=1;html=1;rounded=0;exitX=1;exitY=0.5;exitDx=0;exitDy=0;entryX=0;entryY=0.5;entryDx=0;entryDy=0;endFill=1;" parent="1" source="NL-jAxbfkmhSjJglFaPL-12" target="NL-jAxbfkmhSjJglFaPL-25" edge="1">
          <mxGeometry width="160" relative="1" as="geometry">
            <mxPoint x="470" y="210" as="sourcePoint" />
            <mxPoint x="630" y="210" as="targetPoint" />
            <Array as="points">
              <mxPoint x="550" y="205" />
            </Array>
          </mxGeometry>
        </mxCell>
        <mxCell id="NL-jAxbfkmhSjJglFaPL-28" value="include" style="endArrow=classic;dashed=1;html=1;rounded=0;exitX=1;exitY=0.5;exitDx=0;exitDy=0;entryX=0;entryY=0.5;entryDx=0;entryDy=0;endFill=1;" parent="1" source="NL-jAxbfkmhSjJglFaPL-12" target="NL-jAxbfkmhSjJglFaPL-26" edge="1">
          <mxGeometry x="0.4" y="5" width="160" relative="1" as="geometry">
            <mxPoint x="470" y="210" as="sourcePoint" />
            <mxPoint x="630" y="210" as="targetPoint" />
            <Array as="points">
              <mxPoint x="550" y="305" />
            </Array>
            <mxPoint as="offset" />
          </mxGeometry>
        </mxCell>
        <mxCell id="NL-jAxbfkmhSjJglFaPL-29" value="" style="endArrow=none;html=1;edgeStyle=orthogonalEdgeStyle;rounded=0;exitX=0.5;exitY=0.5;exitDx=0;exitDy=0;exitPerimeter=0;entryX=0;entryY=0.5;entryDx=0;entryDy=0;" parent="1" source="NL-jAxbfkmhSjJglFaPL-3" target="NL-jAxbfkmhSjJglFaPL-14" edge="1">
          <mxGeometry relative="1" as="geometry">
            <mxPoint x="400" y="410" as="sourcePoint" />
            <mxPoint x="410" y="360" as="targetPoint" />
          </mxGeometry>
        </mxCell>
        <mxCell id="NL-jAxbfkmhSjJglFaPL-36" style="edgeStyle=orthogonalEdgeStyle;rounded=0;orthogonalLoop=1;jettySize=auto;html=1;entryX=0;entryY=0.5;entryDx=0;entryDy=0;dashed=1;" parent="1" source="NL-jAxbfkmhSjJglFaPL-32" target="NL-jAxbfkmhSjJglFaPL-34" edge="1">
          <mxGeometry relative="1" as="geometry" />
        </mxCell>
        <mxCell id="NL-jAxbfkmhSjJglFaPL-37" value="include" style="edgeLabel;html=1;align=center;verticalAlign=middle;resizable=0;points=[];" parent="NL-jAxbfkmhSjJglFaPL-36" vertex="1" connectable="0">
          <mxGeometry x="-0.15" y="-2" relative="1" as="geometry">
            <mxPoint y="-40" as="offset" />
          </mxGeometry>
        </mxCell>
        <mxCell id="NL-jAxbfkmhSjJglFaPL-40" style="edgeStyle=orthogonalEdgeStyle;rounded=0;orthogonalLoop=1;jettySize=auto;html=1;entryX=0;entryY=0.5;entryDx=0;entryDy=0;dashed=1;" parent="1" source="NL-jAxbfkmhSjJglFaPL-32" target="NL-jAxbfkmhSjJglFaPL-38" edge="1">
          <mxGeometry relative="1" as="geometry" />
        </mxCell>
        <mxCell id="NL-jAxbfkmhSjJglFaPL-41" value="include" style="edgeLabel;html=1;align=center;verticalAlign=middle;resizable=0;points=[];" parent="NL-jAxbfkmhSjJglFaPL-40" vertex="1" connectable="0">
          <mxGeometry x="0.2" y="1" relative="1" as="geometry">
            <mxPoint as="offset" />
          </mxGeometry>
        </mxCell>
        <mxCell id="NL-jAxbfkmhSjJglFaPL-42" style="edgeStyle=orthogonalEdgeStyle;rounded=0;orthogonalLoop=1;jettySize=auto;html=1;entryX=0;entryY=0.5;entryDx=0;entryDy=0;dashed=1;" parent="1" source="NL-jAxbfkmhSjJglFaPL-32" target="NL-jAxbfkmhSjJglFaPL-39" edge="1">
          <mxGeometry relative="1" as="geometry" />
        </mxCell>
        <mxCell id="NL-jAxbfkmhSjJglFaPL-43" value="include" style="edgeLabel;html=1;align=center;verticalAlign=middle;resizable=0;points=[];" parent="NL-jAxbfkmhSjJglFaPL-42" vertex="1" connectable="0">
          <mxGeometry x="0.259" y="1" relative="1" as="geometry">
            <mxPoint as="offset" />
          </mxGeometry>
        </mxCell>
        <mxCell id="NL-jAxbfkmhSjJglFaPL-32" value="Просмотр контента курса" style="ellipse;whiteSpace=wrap;html=1;" parent="1" vertex="1">
          <mxGeometry x="410" y="400" width="140" height="70" as="geometry" />
        </mxCell>
        <mxCell id="NL-jAxbfkmhSjJglFaPL-34" value="Навигация по курсу" style="ellipse;whiteSpace=wrap;html=1;" parent="1" vertex="1">
          <mxGeometry x="660" y="370" width="140" height="70" as="geometry" />
        </mxCell>
        <mxCell id="NL-jAxbfkmhSjJglFaPL-38" value="Просмотр контента конкретного урока" style="ellipse;whiteSpace=wrap;html=1;" parent="1" vertex="1">
          <mxGeometry x="660" y="480" width="140" height="70" as="geometry" />
        </mxCell>
        <mxCell id="NL-jAxbfkmhSjJglFaPL-39" value="Просмотр комментариев в конкретном уроке" style="ellipse;whiteSpace=wrap;html=1;" parent="1" vertex="1">
          <mxGeometry x="660" y="595" width="140" height="70" as="geometry" />
        </mxCell>
        <mxCell id="NL-jAxbfkmhSjJglFaPL-55" style="edgeStyle=orthogonalEdgeStyle;rounded=0;orthogonalLoop=1;jettySize=auto;html=1;entryX=0;entryY=0.5;entryDx=0;entryDy=0;dashed=1;" parent="1" source="NL-jAxbfkmhSjJglFaPL-49" target="NL-jAxbfkmhSjJglFaPL-50" edge="1">
          <mxGeometry relative="1" as="geometry">
            <Array as="points">
              <mxPoint x="480" y="725" />
            </Array>
          </mxGeometry>
        </mxCell>
        <mxCell id="NL-jAxbfkmhSjJglFaPL-62" value="include" style="edgeLabel;html=1;align=center;verticalAlign=middle;resizable=0;points=[];" parent="NL-jAxbfkmhSjJglFaPL-55" vertex="1" connectable="0">
          <mxGeometry x="0.175" relative="1" as="geometry">
            <mxPoint as="offset" />
          </mxGeometry>
        </mxCell>
        <mxCell id="NL-jAxbfkmhSjJglFaPL-83" style="edgeStyle=orthogonalEdgeStyle;rounded=0;orthogonalLoop=1;jettySize=auto;html=1;entryX=0;entryY=0.5;entryDx=0;entryDy=0;dashed=1;" parent="1" source="NL-jAxbfkmhSjJglFaPL-49" target="NL-jAxbfkmhSjJglFaPL-52" edge="1">
          <mxGeometry relative="1" as="geometry">
            <Array as="points">
              <mxPoint x="520" y="945" />
            </Array>
          </mxGeometry>
        </mxCell>
        <mxCell id="NL-jAxbfkmhSjJglFaPL-84" value="include" style="edgeLabel;html=1;align=center;verticalAlign=middle;resizable=0;points=[];" parent="NL-jAxbfkmhSjJglFaPL-83" vertex="1" connectable="0">
          <mxGeometry x="-0.1176" y="3" relative="1" as="geometry">
            <mxPoint as="offset" />
          </mxGeometry>
        </mxCell>
        <mxCell id="NL-jAxbfkmhSjJglFaPL-49" value="Решение простых задач" style="ellipse;whiteSpace=wrap;html=1;" parent="1" vertex="1">
          <mxGeometry x="410" y="730" width="140" height="70" as="geometry" />
        </mxCell>
        <mxCell id="NL-jAxbfkmhSjJglFaPL-50" value="Написание решения на предложенном языке программирования" style="ellipse;whiteSpace=wrap;html=1;" parent="1" vertex="1">
          <mxGeometry x="630" y="690" width="200" height="70" as="geometry" />
        </mxCell>
        <mxCell id="NL-jAxbfkmhSjJglFaPL-70" value="extend" style="edgeStyle=orthogonalEdgeStyle;rounded=0;orthogonalLoop=1;jettySize=auto;html=1;entryX=1;entryY=0.5;entryDx=0;entryDy=0;dashed=1;" parent="1" source="NL-jAxbfkmhSjJglFaPL-51" target="NL-jAxbfkmhSjJglFaPL-49" edge="1">
          <mxGeometry relative="1" as="geometry" />
        </mxCell>
        <mxCell id="NL-jAxbfkmhSjJglFaPL-75" style="edgeStyle=orthogonalEdgeStyle;rounded=0;orthogonalLoop=1;jettySize=auto;html=1;entryX=0;entryY=0.5;entryDx=0;entryDy=0;dashed=1;" parent="1" source="NL-jAxbfkmhSjJglFaPL-51" target="NL-jAxbfkmhSjJglFaPL-74" edge="1">
          <mxGeometry relative="1" as="geometry">
            <Array as="points">
              <mxPoint x="730" y="780" />
              <mxPoint x="870" y="780" />
              <mxPoint x="870" y="735" />
            </Array>
          </mxGeometry>
        </mxCell>
        <mxCell id="NL-jAxbfkmhSjJglFaPL-76" value="include" style="edgeLabel;html=1;align=center;verticalAlign=middle;resizable=0;points=[];" parent="NL-jAxbfkmhSjJglFaPL-75" vertex="1" connectable="0">
          <mxGeometry x="0.0694" y="4" relative="1" as="geometry">
            <mxPoint x="-11" y="-6" as="offset" />
          </mxGeometry>
        </mxCell>
        <mxCell id="NL-jAxbfkmhSjJglFaPL-80" style="edgeStyle=orthogonalEdgeStyle;rounded=0;orthogonalLoop=1;jettySize=auto;html=1;entryX=0;entryY=0.5;entryDx=0;entryDy=0;dashed=1;" parent="1" source="NL-jAxbfkmhSjJglFaPL-51" target="NL-jAxbfkmhSjJglFaPL-53" edge="1">
          <mxGeometry relative="1" as="geometry" />
        </mxCell>
        <mxCell id="NL-jAxbfkmhSjJglFaPL-81" value="include" style="edgeLabel;html=1;align=center;verticalAlign=middle;resizable=0;points=[];" parent="NL-jAxbfkmhSjJglFaPL-80" vertex="1" connectable="0">
          <mxGeometry x="0.0824" y="3" relative="1" as="geometry">
            <mxPoint x="-4" y="-12" as="offset" />
          </mxGeometry>
        </mxCell>
        <mxCell id="NL-jAxbfkmhSjJglFaPL-51" value="Отправка решения&lt;br&gt;&amp;nbsp;на платформу&lt;br&gt;&amp;nbsp;для тестирования" style="ellipse;whiteSpace=wrap;html=1;" parent="1" vertex="1">
          <mxGeometry x="630" y="800" width="200" height="70" as="geometry" />
        </mxCell>
        <mxCell id="NL-jAxbfkmhSjJglFaPL-85" style="edgeStyle=orthogonalEdgeStyle;rounded=0;orthogonalLoop=1;jettySize=auto;html=1;entryX=0.5;entryY=1;entryDx=0;entryDy=0;dashed=1;" parent="1" source="NL-jAxbfkmhSjJglFaPL-52" target="NL-jAxbfkmhSjJglFaPL-51" edge="1">
          <mxGeometry relative="1" as="geometry" />
        </mxCell>
        <mxCell id="NL-jAxbfkmhSjJglFaPL-86" value="include" style="edgeLabel;html=1;align=center;verticalAlign=middle;resizable=0;points=[];" parent="NL-jAxbfkmhSjJglFaPL-85" vertex="1" connectable="0">
          <mxGeometry x="-0.25" y="1" relative="1" as="geometry">
            <mxPoint as="offset" />
          </mxGeometry>
        </mxCell>
        <mxCell id="NL-jAxbfkmhSjJglFaPL-94" style="edgeStyle=orthogonalEdgeStyle;rounded=0;orthogonalLoop=1;jettySize=auto;html=1;entryX=0;entryY=0.5;entryDx=0;entryDy=0;dashed=1;" parent="1" source="NL-jAxbfkmhSjJglFaPL-52" target="NL-jAxbfkmhSjJglFaPL-93" edge="1">
          <mxGeometry relative="1" as="geometry" />
        </mxCell>
        <mxCell id="NL-jAxbfkmhSjJglFaPL-95" value="include" style="edgeLabel;html=1;align=center;verticalAlign=middle;resizable=0;points=[];" parent="NL-jAxbfkmhSjJglFaPL-94" vertex="1" connectable="0">
          <mxGeometry x="-0.175" y="2" relative="1" as="geometry">
            <mxPoint as="offset" />
          </mxGeometry>
        </mxCell>
        <mxCell id="NL-jAxbfkmhSjJglFaPL-52" value="Отправка решения&lt;br&gt;&amp;nbsp;на платформу&lt;br&gt;&amp;nbsp;для оценки" style="ellipse;whiteSpace=wrap;html=1;" parent="1" vertex="1">
          <mxGeometry x="630" y="910" width="200" height="70" as="geometry" />
        </mxCell>
        <mxCell id="NL-jAxbfkmhSjJglFaPL-53" value="Уведомление о статусе успешности решения" style="ellipse;whiteSpace=wrap;html=1;" parent="1" vertex="1">
          <mxGeometry x="910" y="800" width="180" height="70" as="geometry" />
        </mxCell>
        <mxCell id="NL-jAxbfkmhSjJglFaPL-74" value="отображение игрового интерфейса в формате &lt;br&gt;&quot;путь из A в Б&quot;" style="ellipse;whiteSpace=wrap;html=1;" parent="1" vertex="1">
          <mxGeometry x="910" y="700" width="180" height="70" as="geometry" />
        </mxCell>
        <mxCell id="NL-jAxbfkmhSjJglFaPL-78" style="edgeStyle=orthogonalEdgeStyle;rounded=0;orthogonalLoop=1;jettySize=auto;html=1;entryX=0.5;entryY=1;entryDx=0;entryDy=0;dashed=1;" parent="1" source="NL-jAxbfkmhSjJglFaPL-77" target="NL-jAxbfkmhSjJglFaPL-49" edge="1">
          <mxGeometry relative="1" as="geometry" />
        </mxCell>
        <mxCell id="NL-jAxbfkmhSjJglFaPL-79" value="include" style="edgeLabel;html=1;align=center;verticalAlign=middle;resizable=0;points=[];" parent="NL-jAxbfkmhSjJglFaPL-78" vertex="1" connectable="0">
          <mxGeometry x="0.2857" y="-1" relative="1" as="geometry">
            <mxPoint x="-31" y="75" as="offset" />
          </mxGeometry>
        </mxCell>
        <mxCell id="NL-jAxbfkmhSjJglFaPL-89" value="include" style="edgeStyle=orthogonalEdgeStyle;rounded=0;orthogonalLoop=1;jettySize=auto;html=1;entryX=0;entryY=0.5;entryDx=0;entryDy=0;dashed=1;" parent="1" source="NL-jAxbfkmhSjJglFaPL-77" target="NL-jAxbfkmhSjJglFaPL-88" edge="1">
          <mxGeometry relative="1" as="geometry" />
        </mxCell>
        <mxCell id="NL-jAxbfkmhSjJglFaPL-91" style="edgeStyle=orthogonalEdgeStyle;rounded=0;orthogonalLoop=1;jettySize=auto;html=1;entryX=0;entryY=0.5;entryDx=0;entryDy=0;dashed=1;" parent="1" source="NL-jAxbfkmhSjJglFaPL-77" target="NL-jAxbfkmhSjJglFaPL-90" edge="1">
          <mxGeometry relative="1" as="geometry" />
        </mxCell>
        <mxCell id="NL-jAxbfkmhSjJglFaPL-92" value="include" style="edgeLabel;html=1;align=center;verticalAlign=middle;resizable=0;points=[];" parent="NL-jAxbfkmhSjJglFaPL-91" vertex="1" connectable="0">
          <mxGeometry x="0.0342" y="1" relative="1" as="geometry">
            <mxPoint as="offset" />
          </mxGeometry>
        </mxCell>
        <mxCell id="NL-jAxbfkmhSjJglFaPL-77" value="Решение сложных задач" style="ellipse;whiteSpace=wrap;html=1;" parent="1" vertex="1">
          <mxGeometry x="410" y="1150" width="140" height="70" as="geometry" />
        </mxCell>
        <mxCell id="NL-jAxbfkmhSjJglFaPL-88" value="Уведомление о статусе прохождения системы антиплагиат" style="ellipse;whiteSpace=wrap;html=1;" parent="1" vertex="1">
          <mxGeometry x="627" y="1050" width="200" height="70" as="geometry" />
        </mxCell>
        <mxCell id="NL-jAxbfkmhSjJglFaPL-102" style="edgeStyle=orthogonalEdgeStyle;rounded=0;orthogonalLoop=1;jettySize=auto;html=1;entryX=0;entryY=0.5;entryDx=0;entryDy=0;dashed=1;" parent="1" source="NL-jAxbfkmhSjJglFaPL-90" target="NL-jAxbfkmhSjJglFaPL-101" edge="1">
          <mxGeometry relative="1" as="geometry">
            <Array as="points">
              <mxPoint x="727" y="1280" />
              <mxPoint x="861" y="1280" />
              <mxPoint x="861" y="1245" />
            </Array>
          </mxGeometry>
        </mxCell>
        <mxCell id="NL-jAxbfkmhSjJglFaPL-103" value="include" style="edgeLabel;html=1;align=center;verticalAlign=middle;resizable=0;points=[];" parent="NL-jAxbfkmhSjJglFaPL-102" vertex="1" connectable="0">
          <mxGeometry x="-0.0493" y="-1" relative="1" as="geometry">
            <mxPoint x="-13" y="-1" as="offset" />
          </mxGeometry>
        </mxCell>
        <mxCell id="NL-jAxbfkmhSjJglFaPL-90" value="Отправка решения на проверку преподавателю" style="ellipse;whiteSpace=wrap;html=1;" parent="1" vertex="1">
          <mxGeometry x="627" y="1190" width="200" height="70" as="geometry" />
        </mxCell>
        <mxCell id="NL-jAxbfkmhSjJglFaPL-93" value="Уведомление о полученных за решение задачи баллов" style="ellipse;whiteSpace=wrap;html=1;" parent="1" vertex="1">
          <mxGeometry x="900" y="910" width="200" height="70" as="geometry" />
        </mxCell>
        <mxCell id="NL-jAxbfkmhSjJglFaPL-99" style="edgeStyle=orthogonalEdgeStyle;rounded=0;orthogonalLoop=1;jettySize=auto;html=1;entryX=1;entryY=0.5;entryDx=0;entryDy=0;dashed=1;" parent="1" source="NL-jAxbfkmhSjJglFaPL-96" target="NL-jAxbfkmhSjJglFaPL-90" edge="1">
          <mxGeometry relative="1" as="geometry" />
        </mxCell>
        <mxCell id="NL-jAxbfkmhSjJglFaPL-100" value="extend" style="edgeLabel;html=1;align=center;verticalAlign=middle;resizable=0;points=[];" parent="NL-jAxbfkmhSjJglFaPL-99" vertex="1" connectable="0">
          <mxGeometry x="-0.2619" y="-4" relative="1" as="geometry">
            <mxPoint as="offset" />
          </mxGeometry>
        </mxCell>
        <mxCell id="NL-jAxbfkmhSjJglFaPL-96" value="Общение с преподавателем о предоставленном решении" style="ellipse;whiteSpace=wrap;html=1;" parent="1" vertex="1">
          <mxGeometry x="895" y="1090" width="210" height="70" as="geometry" />
        </mxCell>
        <mxCell id="NL-jAxbfkmhSjJglFaPL-101" value="Получение уведомления о правильности решения от преподавателя" style="ellipse;whiteSpace=wrap;html=1;" parent="1" vertex="1">
          <mxGeometry x="895" y="1210" width="210" height="70" as="geometry" />
        </mxCell>
        <mxCell id="NL-jAxbfkmhSjJglFaPL-110" style="edgeStyle=orthogonalEdgeStyle;rounded=0;orthogonalLoop=1;jettySize=auto;html=1;dashed=1;" parent="1" source="NL-jAxbfkmhSjJglFaPL-107" target="NL-jAxbfkmhSjJglFaPL-109" edge="1">
          <mxGeometry relative="1" as="geometry" />
        </mxCell>
        <mxCell id="NL-jAxbfkmhSjJglFaPL-111" value="include" style="edgeLabel;html=1;align=center;verticalAlign=middle;resizable=0;points=[];" parent="NL-jAxbfkmhSjJglFaPL-110" vertex="1" connectable="0">
          <mxGeometry x="-0.0447" y="-1" relative="1" as="geometry">
            <mxPoint y="-11" as="offset" />
          </mxGeometry>
        </mxCell>
        <mxCell id="NL-jAxbfkmhSjJglFaPL-107" value="Отправка запроса на доступ&lt;br&gt;&amp;nbsp;к курсу на уровне пользователя &quot;учитель&quot;" style="ellipse;whiteSpace=wrap;html=1;" parent="1" vertex="1">
          <mxGeometry x="410" y="1320" width="210" height="80" as="geometry" />
        </mxCell>
        <mxCell id="NL-jAxbfkmhSjJglFaPL-109" value="Получение уведомления&amp;nbsp;о статусе рассмотрения&lt;br&gt;&amp;nbsp;запроса" style="ellipse;whiteSpace=wrap;html=1;" parent="1" vertex="1">
          <mxGeometry x="670" y="1317.5" width="190" height="85" as="geometry" />
        </mxCell>
        <mxCell id="NL-jAxbfkmhSjJglFaPL-114" value="Система по обучению программированию&amp;nbsp;" style="text;html=1;strokeColor=none;fillColor=none;align=center;verticalAlign=middle;whiteSpace=wrap;rounded=0;" parent="1" vertex="1">
          <mxGeometry x="573.5" y="-180" width="313" height="30" as="geometry" />
        </mxCell>
        <mxCell id="NL-jAxbfkmhSjJglFaPL-115" value="" style="rounded=0;whiteSpace=wrap;html=1;" parent="1" vertex="1">
          <mxGeometry x="-710" y="-190" width="880" height="1650" as="geometry" />
        </mxCell>
        <mxCell id="NL-jAxbfkmhSjJglFaPL-121" style="edgeStyle=orthogonalEdgeStyle;rounded=0;orthogonalLoop=1;jettySize=auto;html=1;endArrow=block;endFill=0;" parent="1" source="NL-jAxbfkmhSjJglFaPL-116" target="NL-jAxbfkmhSjJglFaPL-3" edge="1">
          <mxGeometry relative="1" as="geometry" />
        </mxCell>
        <mxCell id="VoAC6FmrKTjfbDG0pyqv-26" style="edgeStyle=orthogonalEdgeStyle;rounded=0;orthogonalLoop=1;jettySize=auto;html=1;entryX=1;entryY=0.5;entryDx=0;entryDy=0;endArrow=none;endFill=0;" edge="1" parent="1" source="NL-jAxbfkmhSjJglFaPL-116" target="VoAC6FmrKTjfbDG0pyqv-19">
          <mxGeometry relative="1" as="geometry">
            <Array as="points">
              <mxPoint x="80" y="555" />
            </Array>
          </mxGeometry>
        </mxCell>
        <mxCell id="VoAC6FmrKTjfbDG0pyqv-27" style="edgeStyle=orthogonalEdgeStyle;rounded=0;orthogonalLoop=1;jettySize=auto;html=1;entryX=1;entryY=0.5;entryDx=0;entryDy=0;endArrow=none;endFill=0;" edge="1" parent="1" source="NL-jAxbfkmhSjJglFaPL-116" target="NL-jAxbfkmhSjJglFaPL-122">
          <mxGeometry relative="1" as="geometry">
            <Array as="points">
              <mxPoint x="140" y="555" />
              <mxPoint x="140" y="75" />
            </Array>
          </mxGeometry>
        </mxCell>
        <mxCell id="NL-jAxbfkmhSjJglFaPL-116" value="Teacher" style="shape=umlActor;verticalLabelPosition=bottom;verticalAlign=top;html=1;outlineConnect=0;" parent="1" vertex="1">
          <mxGeometry x="200" y="524.5" width="30" height="60" as="geometry" />
        </mxCell>
        <mxCell id="VoAC6FmrKTjfbDG0pyqv-9" value="include" style="edgeStyle=orthogonalEdgeStyle;rounded=0;orthogonalLoop=1;jettySize=auto;html=1;entryX=1;entryY=0.5;entryDx=0;entryDy=0;dashed=1;" edge="1" parent="1" source="NL-jAxbfkmhSjJglFaPL-122" target="VoAC6FmrKTjfbDG0pyqv-1">
          <mxGeometry y="-15" relative="1" as="geometry">
            <mxPoint as="offset" />
          </mxGeometry>
        </mxCell>
        <mxCell id="VoAC6FmrKTjfbDG0pyqv-10" style="edgeStyle=orthogonalEdgeStyle;rounded=0;orthogonalLoop=1;jettySize=auto;html=1;exitX=0;exitY=0.5;exitDx=0;exitDy=0;entryX=1;entryY=0.5;entryDx=0;entryDy=0;dashed=1;" edge="1" parent="1" source="NL-jAxbfkmhSjJglFaPL-122" target="VoAC6FmrKTjfbDG0pyqv-2">
          <mxGeometry relative="1" as="geometry" />
        </mxCell>
        <mxCell id="VoAC6FmrKTjfbDG0pyqv-11" value="include" style="edgeLabel;html=1;align=center;verticalAlign=middle;resizable=0;points=[];" vertex="1" connectable="0" parent="VoAC6FmrKTjfbDG0pyqv-10">
          <mxGeometry x="0.1447" y="2" relative="1" as="geometry">
            <mxPoint as="offset" />
          </mxGeometry>
        </mxCell>
        <mxCell id="VoAC6FmrKTjfbDG0pyqv-12" style="edgeStyle=orthogonalEdgeStyle;rounded=0;orthogonalLoop=1;jettySize=auto;html=1;entryX=1;entryY=0.5;entryDx=0;entryDy=0;dashed=1;" edge="1" parent="1" source="NL-jAxbfkmhSjJglFaPL-122" target="VoAC6FmrKTjfbDG0pyqv-3">
          <mxGeometry relative="1" as="geometry" />
        </mxCell>
        <mxCell id="VoAC6FmrKTjfbDG0pyqv-13" value="include" style="edgeLabel;html=1;align=center;verticalAlign=middle;resizable=0;points=[];" vertex="1" connectable="0" parent="VoAC6FmrKTjfbDG0pyqv-12">
          <mxGeometry x="0.4407" relative="1" as="geometry">
            <mxPoint as="offset" />
          </mxGeometry>
        </mxCell>
        <mxCell id="NL-jAxbfkmhSjJglFaPL-122" value="Проверка сложных задач курса" style="ellipse;whiteSpace=wrap;html=1;" parent="1" vertex="1">
          <mxGeometry x="-80" y="40" width="140" height="70" as="geometry" />
        </mxCell>
        <mxCell id="VoAC6FmrKTjfbDG0pyqv-1" value="Выбор студента, у которого можно провести проверку" style="ellipse;whiteSpace=wrap;html=1;" vertex="1" parent="1">
          <mxGeometry x="-340" y="40" width="140" height="70" as="geometry" />
        </mxCell>
        <mxCell id="VoAC6FmrKTjfbDG0pyqv-2" value="Просмотр решения студента" style="ellipse;whiteSpace=wrap;html=1;" vertex="1" parent="1">
          <mxGeometry x="-340" y="150" width="140" height="70" as="geometry" />
        </mxCell>
        <mxCell id="VoAC6FmrKTjfbDG0pyqv-3" value="Выставление оценки за решение" style="ellipse;whiteSpace=wrap;html=1;" vertex="1" parent="1">
          <mxGeometry x="-340" y="260" width="140" height="70" as="geometry" />
        </mxCell>
        <mxCell id="VoAC6FmrKTjfbDG0pyqv-6" style="edgeStyle=orthogonalEdgeStyle;rounded=0;orthogonalLoop=1;jettySize=auto;html=1;endArrow=block;endFill=0;" edge="1" parent="1" source="VoAC6FmrKTjfbDG0pyqv-4" target="VoAC6FmrKTjfbDG0pyqv-3">
          <mxGeometry relative="1" as="geometry" />
        </mxCell>
        <mxCell id="VoAC6FmrKTjfbDG0pyqv-4" value="Выставление положительной оценки" style="ellipse;whiteSpace=wrap;html=1;" vertex="1" parent="1">
          <mxGeometry x="-440" y="370" width="140" height="70" as="geometry" />
        </mxCell>
        <mxCell id="VoAC6FmrKTjfbDG0pyqv-8" style="edgeStyle=orthogonalEdgeStyle;rounded=0;orthogonalLoop=1;jettySize=auto;html=1;entryX=0.5;entryY=1;entryDx=0;entryDy=0;endArrow=block;endFill=0;" edge="1" parent="1" source="VoAC6FmrKTjfbDG0pyqv-5" target="VoAC6FmrKTjfbDG0pyqv-3">
          <mxGeometry relative="1" as="geometry" />
        </mxCell>
        <mxCell id="VoAC6FmrKTjfbDG0pyqv-5" value="Выставление отрицательной оценки" style="ellipse;whiteSpace=wrap;html=1;" vertex="1" parent="1">
          <mxGeometry x="-240" y="370" width="140" height="70" as="geometry" />
        </mxCell>
        <mxCell id="VoAC6FmrKTjfbDG0pyqv-16" style="edgeStyle=orthogonalEdgeStyle;rounded=0;orthogonalLoop=1;jettySize=auto;html=1;dashed=1;" edge="1" parent="1" source="VoAC6FmrKTjfbDG0pyqv-14" target="NL-jAxbfkmhSjJglFaPL-122">
          <mxGeometry relative="1" as="geometry" />
        </mxCell>
        <mxCell id="VoAC6FmrKTjfbDG0pyqv-17" value="extend" style="edgeLabel;html=1;align=center;verticalAlign=middle;resizable=0;points=[];" vertex="1" connectable="0" parent="VoAC6FmrKTjfbDG0pyqv-16">
          <mxGeometry x="-0.0424" y="-3" relative="1" as="geometry">
            <mxPoint y="-18" as="offset" />
          </mxGeometry>
        </mxCell>
        <mxCell id="VoAC6FmrKTjfbDG0pyqv-14" value="Запустить общение со студентом&lt;br&gt;&amp;nbsp;по его решению &lt;br&gt;в формате текстовых тредов" style="ellipse;whiteSpace=wrap;html=1;" vertex="1" parent="1">
          <mxGeometry x="-385" y="-80" width="230" height="80" as="geometry" />
        </mxCell>
        <mxCell id="VoAC6FmrKTjfbDG0pyqv-22" style="edgeStyle=orthogonalEdgeStyle;rounded=0;orthogonalLoop=1;jettySize=auto;html=1;dashed=1;" edge="1" parent="1" source="VoAC6FmrKTjfbDG0pyqv-19" target="VoAC6FmrKTjfbDG0pyqv-20">
          <mxGeometry relative="1" as="geometry" />
        </mxCell>
        <mxCell id="VoAC6FmrKTjfbDG0pyqv-23" style="edgeStyle=orthogonalEdgeStyle;rounded=0;orthogonalLoop=1;jettySize=auto;html=1;entryX=1;entryY=0.5;entryDx=0;entryDy=0;dashed=1;" edge="1" parent="1" source="VoAC6FmrKTjfbDG0pyqv-19" target="VoAC6FmrKTjfbDG0pyqv-21">
          <mxGeometry relative="1" as="geometry" />
        </mxCell>
        <mxCell id="VoAC6FmrKTjfbDG0pyqv-24" value="include" style="edgeLabel;html=1;align=center;verticalAlign=middle;resizable=0;points=[];" vertex="1" connectable="0" parent="VoAC6FmrKTjfbDG0pyqv-23">
          <mxGeometry x="0.0417" relative="1" as="geometry">
            <mxPoint as="offset" />
          </mxGeometry>
        </mxCell>
        <mxCell id="VoAC6FmrKTjfbDG0pyqv-25" value="include" style="edgeLabel;html=1;align=center;verticalAlign=middle;resizable=0;points=[];" vertex="1" connectable="0" parent="VoAC6FmrKTjfbDG0pyqv-23">
          <mxGeometry x="-0.6926" y="2" relative="1" as="geometry">
            <mxPoint x="-10" y="-12" as="offset" />
          </mxGeometry>
        </mxCell>
        <mxCell id="VoAC6FmrKTjfbDG0pyqv-19" value="Запрос на создание отчета об успеваемости студентов" style="ellipse;whiteSpace=wrap;html=1;" vertex="1" parent="1">
          <mxGeometry x="-100" y="510" width="180" height="80" as="geometry" />
        </mxCell>
        <mxCell id="VoAC6FmrKTjfbDG0pyqv-20" value="Получение отчета в личном кабинете" style="ellipse;whiteSpace=wrap;html=1;" vertex="1" parent="1">
          <mxGeometry x="-360" y="510" width="180" height="80" as="geometry" />
        </mxCell>
        <mxCell id="VoAC6FmrKTjfbDG0pyqv-21" value="Получение отчета по почте" style="ellipse;whiteSpace=wrap;html=1;" vertex="1" parent="1">
          <mxGeometry x="-360" y="620" width="180" height="80" as="geometry" />
        </mxCell>
        <mxCell id="VoAC6FmrKTjfbDG0pyqv-29" style="edgeStyle=orthogonalEdgeStyle;rounded=0;orthogonalLoop=1;jettySize=auto;html=1;endArrow=block;endFill=0;" edge="1" parent="1" source="VoAC6FmrKTjfbDG0pyqv-28" target="NL-jAxbfkmhSjJglFaPL-116">
          <mxGeometry relative="1" as="geometry" />
        </mxCell>
        <mxCell id="VoAC6FmrKTjfbDG0pyqv-44" style="edgeStyle=orthogonalEdgeStyle;rounded=0;orthogonalLoop=1;jettySize=auto;html=1;entryX=1;entryY=0.5;entryDx=0;entryDy=0;endArrow=none;endFill=0;" edge="1" parent="1" source="VoAC6FmrKTjfbDG0pyqv-28" target="VoAC6FmrKTjfbDG0pyqv-33">
          <mxGeometry relative="1" as="geometry" />
        </mxCell>
        <mxCell id="VoAC6FmrKTjfbDG0pyqv-28" value="Administrator" style="shape=umlActor;verticalLabelPosition=bottom;verticalAlign=top;html=1;outlineConnect=0;" vertex="1" parent="1">
          <mxGeometry x="200" y="710" width="30" height="60" as="geometry" />
        </mxCell>
        <mxCell id="VoAC6FmrKTjfbDG0pyqv-32" value="Система по обучению программированию&amp;nbsp;" style="text;html=1;strokeColor=none;fillColor=none;align=center;verticalAlign=middle;whiteSpace=wrap;rounded=0;" vertex="1" parent="1">
          <mxGeometry x="-426.5" y="-180" width="313" height="30" as="geometry" />
        </mxCell>
        <mxCell id="VoAC6FmrKTjfbDG0pyqv-38" style="edgeStyle=orthogonalEdgeStyle;rounded=0;orthogonalLoop=1;jettySize=auto;html=1;entryX=1;entryY=0.5;entryDx=0;entryDy=0;dashed=1;" edge="1" parent="1" source="VoAC6FmrKTjfbDG0pyqv-33" target="VoAC6FmrKTjfbDG0pyqv-34">
          <mxGeometry relative="1" as="geometry" />
        </mxCell>
        <mxCell id="VoAC6FmrKTjfbDG0pyqv-40" value="include" style="edgeLabel;html=1;align=center;verticalAlign=middle;resizable=0;points=[];" vertex="1" connectable="0" parent="VoAC6FmrKTjfbDG0pyqv-38">
          <mxGeometry x="0.1554" y="-2" relative="1" as="geometry">
            <mxPoint as="offset" />
          </mxGeometry>
        </mxCell>
        <mxCell id="VoAC6FmrKTjfbDG0pyqv-39" style="edgeStyle=orthogonalEdgeStyle;rounded=0;orthogonalLoop=1;jettySize=auto;html=1;entryX=1;entryY=0.5;entryDx=0;entryDy=0;dashed=1;" edge="1" parent="1" source="VoAC6FmrKTjfbDG0pyqv-33" target="VoAC6FmrKTjfbDG0pyqv-35">
          <mxGeometry relative="1" as="geometry" />
        </mxCell>
        <mxCell id="VoAC6FmrKTjfbDG0pyqv-41" value="include" style="edgeLabel;html=1;align=center;verticalAlign=middle;resizable=0;points=[];" vertex="1" connectable="0" parent="VoAC6FmrKTjfbDG0pyqv-39">
          <mxGeometry x="0.4648" y="1" relative="1" as="geometry">
            <mxPoint x="5" y="14" as="offset" />
          </mxGeometry>
        </mxCell>
        <mxCell id="VoAC6FmrKTjfbDG0pyqv-33" value="Предоставление прав доступа пользователям" style="ellipse;whiteSpace=wrap;html=1;" vertex="1" parent="1">
          <mxGeometry x="-90" y="900" width="160" height="70" as="geometry" />
        </mxCell>
        <mxCell id="VoAC6FmrKTjfbDG0pyqv-34" value="Просмотр заявок на предоставление прав доступа" style="ellipse;whiteSpace=wrap;html=1;" vertex="1" parent="1">
          <mxGeometry x="-340" y="800" width="140" height="70" as="geometry" />
        </mxCell>
        <mxCell id="VoAC6FmrKTjfbDG0pyqv-35" value="Обработка заявки на предоставление прав" style="ellipse;whiteSpace=wrap;html=1;" vertex="1" parent="1">
          <mxGeometry x="-340" y="920" width="140" height="70" as="geometry" />
        </mxCell>
        <mxCell id="VoAC6FmrKTjfbDG0pyqv-42" style="edgeStyle=orthogonalEdgeStyle;rounded=0;orthogonalLoop=1;jettySize=auto;html=1;entryX=0.5;entryY=1;entryDx=0;entryDy=0;endArrow=block;endFill=0;" edge="1" parent="1" source="VoAC6FmrKTjfbDG0pyqv-36" target="VoAC6FmrKTjfbDG0pyqv-35">
          <mxGeometry relative="1" as="geometry" />
        </mxCell>
        <mxCell id="VoAC6FmrKTjfbDG0pyqv-36" value="Отправка отказа на предоставление прав" style="ellipse;whiteSpace=wrap;html=1;" vertex="1" parent="1">
          <mxGeometry x="-426.5" y="1050" width="140" height="70" as="geometry" />
        </mxCell>
        <mxCell id="VoAC6FmrKTjfbDG0pyqv-43" style="edgeStyle=orthogonalEdgeStyle;rounded=0;orthogonalLoop=1;jettySize=auto;html=1;entryX=0.5;entryY=1;entryDx=0;entryDy=0;endArrow=block;endFill=0;" edge="1" parent="1" source="VoAC6FmrKTjfbDG0pyqv-37" target="VoAC6FmrKTjfbDG0pyqv-35">
          <mxGeometry relative="1" as="geometry" />
        </mxCell>
        <mxCell id="VoAC6FmrKTjfbDG0pyqv-37" value="Отправка одобрения на предоставление прав" style="ellipse;whiteSpace=wrap;html=1;" vertex="1" parent="1">
          <mxGeometry x="-253.5" y="1050" width="153.5" height="70" as="geometry" />
        </mxCell>
      </root>
    </mxGraphModel>
  </diagram>
</mxfile>
